<svg xmlns="http://www.w3.org/2000/svg" width="1200" height="300" viewBox="0 0 1200 300" role="img" aria-labelledby="title desc">
  <title id="title">SQL araştırma rotası</title>
  <desc id="desc">Olay raporundan tanıklara, kayıtlara, şüphelilere ve sonuca ilerleyen beş aşamalı araştırma akışı.</desc>
  <defs>
    <linearGradient id="bg" x1="0" y1="0" x2="1" y2="1"><stop stop-color="#11182a"/><stop offset="1" stop-color="#182238"/></linearGradient>
    <linearGradient id="line" x1="0" y1="0" x2="1" y2="0"><stop stop-color="#7257ff"/><stop offset="1" stop-color="#55c2e8"/></linearGradient>
  </defs>
  <rect width="1200" height="300" rx="22" fill="url(#bg)"/>
  <path d="M140 118H1060" stroke="#33415f" stroke-width="6" stroke-linecap="round"/>
  <path d="M140 118H1060" stroke="url(#line)" stroke-width="2" stroke-linecap="round" stroke-dasharray="8 14"/>
  <g font-family="Arial, Helvetica, sans-serif" text-anchor="middle">
    <g transform="translate(140 118)"><circle r="43" fill="#7357ff"/><path d="M-13-17h20l13 13v23h-33zM7-17v13h13M-5 7H12M-5 15H8" fill="none" stroke="#fff" stroke-width="3" stroke-linejoin="round" stroke-linecap="round"/><text y="78" fill="#f8fafc" font-size="17" font-weight="700">Olay raporu</text><text y="101" fill="#98a2b8" font-size="13">Doğru kaydı bul</text></g>
    <g transform="translate(370 118)"><circle r="43" fill="#5f55d9"/><circle cx="-10" cy="-8" r="9" fill="none" stroke="#fff" stroke-width="3"/><circle cx="13" cy="-4" r="7" fill="none" stroke="#fff" stroke-width="3"/><path d="M-27 20c2-14 11-20 18-20S7 6 8 20M4 17c2-10 8-15 14-15 7 0 13 5 15 15" fill="none" stroke="#fff" stroke-width="3" stroke-linecap="round"/><text y="78" fill="#f8fafc" font-size="17" font-weight="700">Tanıklar</text><text y="101" fill="#98a2b8" font-size="13">İfadeleri takip et</text></g>
    <g transform="translate(600 118)"><circle r="43" fill="#5362d2"/><ellipse cy="-16" rx="20" ry="8" fill="none" stroke="#fff" stroke-width="3"/><path d="M-20-16v30c0 4 9 8 20 8s20-4 20-8v-30M-20-1c0 4 9 8 20 8S20 3 20-1" fill="none" stroke="#fff" stroke-width="3"/><text y="78" fill="#f8fafc" font-size="17" font-weight="700">Kayıtlar</text><text y="101" fill="#98a2b8" font-size="13">Tabloları JOIN et</text></g>
    <g transform="translate(830 118)"><circle r="43" fill="#477fcf"/><circle cx="-5" cy="-5" r="16" fill="none" stroke="#fff" stroke-width="4"/><path d="m7 7 16 16" stroke="#fff" stroke-width="5" stroke-linecap="round"/><text y="78" fill="#f8fafc" font-size="17" font-weight="700">Şüpheliler</text><text y="101" fill="#98a2b8" font-size="13">Kümeleri daralt</text></g>
    <g transform="translate(1060 118)"><circle r="43" fill="#39a4cc"/><path d="m-20 1 13 13 28-32" fill="none" stroke="#fff" stroke-width="5" stroke-linecap="round" stroke-linejoin="round"/><text y="78" fill="#f8fafc" font-size="17" font-weight="700">Çözüm</text><text y="101" fill="#98a2b8" font-size="13">Kanıtlarla doğrula</text></g>
  </g>
</svg>
